<mxfile host="65bd71144e">
    <diagram id="GrBAv1qLYXfYL53MHqqI" name="Page-1">
        <mxGraphModel dx="1195" dy="335" grid="1" gridSize="10" guides="1" tooltips="1" connect="1" arrows="1" fold="1" page="1" pageScale="1" pageWidth="827" pageHeight="1169" math="0" shadow="0">
            <root>
                <mxCell id="0"/>
                <mxCell id="1" parent="0"/>
                <mxCell id="2" value="Pigeon facts list&amp;nbsp;" style="rounded=1;whiteSpace=wrap;html=1;" vertex="1" parent="1">
                    <mxGeometry x="40" y="50" width="120" height="60" as="geometry"/>
                </mxCell>
                <mxCell id="3" value="Pigeon History li" style="rounded=1;whiteSpace=wrap;html=1;" vertex="1" parent="1">
                    <mxGeometry x="350" y="100" width="120" height="60" as="geometry"/>
                </mxCell>
                <mxCell id="4" value="Comment username&amp;nbsp;" style="rounded=1;whiteSpace=wrap;html=1;" vertex="1" parent="1">
                    <mxGeometry x="-10" y="240" width="120" height="60" as="geometry"/>
                </mxCell>
                <mxCell id="5" value="Comment message" style="rounded=1;whiteSpace=wrap;html=1;" vertex="1" parent="1">
                    <mxGeometry x="414" y="200" width="120" height="60" as="geometry"/>
                </mxCell>
                <mxCell id="6" value="Comment username&amp;nbsp;" style="rounded=1;whiteSpace=wrap;html=1;" vertex="1" parent="1">
                    <mxGeometry x="270" y="190" width="120" height="60" as="geometry"/>
                </mxCell>
                <mxCell id="7" value="Comment message" style="rounded=1;whiteSpace=wrap;html=1;" vertex="1" parent="1">
                    <mxGeometry x="130" y="240" width="120" height="60" as="geometry"/>
                </mxCell>
                <mxCell id="8" value="pIgeon fact li&amp;nbsp;" style="rounded=1;whiteSpace=wrap;html=1;" vertex="1" parent="1">
                    <mxGeometry x="40" y="130" width="120" height="60" as="geometry"/>
                </mxCell>
                <mxCell id="9" value="Pigeon Histry&amp;nbsp;" style="rounded=1;whiteSpace=wrap;html=1;" vertex="1" parent="1">
                    <mxGeometry x="350" y="20" width="120" height="60" as="geometry"/>
                </mxCell>
            </root>
        </mxGraphModel>
    </diagram>
</mxfile>